#tb 0: 1001/24000
#tb 1: 1/44100
0,          0,          0,        1,  3824640, 0xf8cf3d18
1,          0,          0,    16384,    32768, 0x6b41078a
1,      14288,      14288,    16384,    32768, 0x96f7bfa2
0,         12,         12,        1,  3824640, 0x29dc2af5
0,         15,         15,        1,  3824640, 0x0ef5287b
0,         16,         16,        1,  3824640, 0x84b5283d
1,      30672,      30672,    14336,    28672, 0xfafb3922
0,         18,         18,        1,  3824640, 0xb2972f1f
0,         19,         19,        1,  3824640, 0x5f59333c
0,         21,         21,        1,  3824640, 0x94643ee6
0,         22,         22,        1,  3824640, 0x646c4e89
0,         24,         24,        1,  3824640, 0x622e6412
1,      45005,      45005,    12288,    24576, 0x32d18657
0,         25,         25,        1,  3824640, 0x6a796412
0,         30,         30,        1,  3824640, 0xf4ee6412
1,      57293,      57293,    10240,    20480, 0x7d89c440
0,         33,         33,        1,  3824640, 0xfd396412
0,         34,         34,        1,  3824640, 0x81666412
0,         36,         36,        1,  3824640, 0xcff46412
1,      67533,      67533,    12288,    24576, 0x23d44d0c
0,         37,         37,        1,  3824640, 0x64b76412
0,         39,         39,        1,  3824640, 0xbaa36412
0,         40,         40,        1,  3824640, 0x12006412
1,      79821,      79821,    12288,    24576, 0x77188395
0,        123,        123,        1,  3824640, 0x1dbe6412
0,        124,        124,        1,  3824640, 0x8f1e6412
0,        126,        126,        1,  3824640, 0x49286412
